<?xml version="1.0" encoding="UTF-8"?>
<svg width="53px" height="52px" viewBox="0 0 53 52" version="1.1" xmlns="http://www.w3.org/2000/svg" xmlns:xlink="http://www.w3.org/1999/xlink">
    <!-- Generator: Sketch 52.2 (67145) - http://www.bohemiancoding.com/sketch -->
    <title>feather</title>
    <desc>Created with Sketch.</desc>
    <g id="Page-1" stroke="none" stroke-width="1" fill="none" fill-rule="evenodd">
        <g id="feather" fill="#000000">
            <path d="M52.2982965,0.120231867 C51.8323709,-0.0995928141 51.2757677,-0.0128349589 50.9028523,0.338341401 C48.057878,3.01511424 43.1557462,6.97238728 35.9583914,10.6236495 C35.6436438,10.783444 35.4135967,11.0675867 35.3267095,11.4044702 C34.7394916,13.6781835 33.5870693,16.1598583 31.9019524,18.780603 L31.2160388,19.8471387 L32.4948558,14.3865392 C32.5990913,13.9413156 32.4397494,13.4763678 32.0825787,13.1830777 C31.7252622,12.8897876 31.2303256,12.8177514 30.8017207,12.9968413 L30.65375,13.0580149 C16.1319169,19.0511675 11.8403283,28.334258 10.5746318,33.3339117 C10.1353847,35.0692117 9.91627142,36.7875032 9.9237064,38.4419055 C9.92662208,39.080226 9.96335964,39.6885315 10.0330444,40.2578174 L0.354446419,49.9345342 C-0.113665918,50.4023405 -0.118768357,51.1501446 0.343075269,51.6242399 C0.586097152,51.8736508 0.912215899,52 1.23950092,52 C1.53398454,52 1.82919709,51.89752 2.06522134,51.6907018 L28.6602999,28.2716551 C28.7909224,28.2800879 13.5171355,43.9661083 13.6554845,43.9661083 C15.7285326,43.9661083 18.5921672,43.0292092 21.9365973,41.2576052 C26.4464245,38.8682624 31.4866138,35.2017068 36.5119332,30.6544232 C36.9247934,30.2810928 37.029612,29.6817919 36.7674925,29.1946901 C36.5053729,28.7077313 35.9420636,28.4541754 35.3942074,28.5779518 L32.2798244,29.2788752 L33.3681018,28.6062517 C36.4055109,26.7287374 39.2450911,25.5317077 41.8076818,25.0477504 C42.0848171,24.9952955 42.3357113,24.8516519 42.5183786,24.6405459 C48.5462543,17.672761 51.0982028,10.7880178 52.1774415,6.23944777 C52.5696004,4.58618894 52.8449863,2.93293011 52.9948523,1.32555146 C53.0417947,0.82072651 52.7643678,0.340056548 52.2982965,0.120231867 Z" id="Path"></path>
        </g>
    </g>
</svg>