<?xml version="1.0" encoding="UTF-8"?>
<svg width="88px" height="44px" viewBox="0 0 88 44" version="1.1" xmlns="http://www.w3.org/2000/svg" xmlns:xlink="http://www.w3.org/1999/xlink">
    <!-- Generator: Sketch 52.3 (67297) - http://www.bohemiancoding.com/sketch -->
    <title>noun_Arrow_1787131</title>
    <desc>Created with Sketch.</desc>
    <g id="Page-1" stroke="none" stroke-width="1" fill="none" fill-rule="evenodd">
        <g id="iPhone-8" transform="translate(-153.000000, -348.000000)" fill="#63696F">
            <g id="noun_Arrow_1787131" transform="translate(152.000000, 347.000000)">
                <g id="Group" transform="translate(0.000000, 0.637820)">
                    <path d="M45.281282,44.3605 C46.1724885,44.3050569 47.0195255,43.95304 47.687522,43.3605 L87.687522,7.36054 C88.7588228,6.40169279 89.2358403,4.94331725 88.9382481,3.53672126 C88.640656,2.13012527 87.6138572,0.989910677 86.2460114,0.547111383 C84.8781656,0.104312089 83.3779625,0.426485195 82.312522,1.39184 L44.999982,34.9855 L7.687482,1.39184 C6.62204288,0.426475879 5.12183483,0.104296025 3.75398324,0.547094462 C2.38613166,0.9898929 1.3593288,2.13011215 1.06173814,3.5367138 C0.764147479,4.94331546 1.24117224,6.40169518 2.3124822,7.36054 L42.312482,43.3605 C43.1249905,44.0835602 44.1968877,44.4446142 45.281282,44.3605 Z" id="Path"></path>
                </g>
            </g>
        </g>
    </g>
</svg>