<?xml version="1.0" encoding="UTF-8"?>
<svg width="26px" height="26px" viewBox="0 0 26 26" version="1.1" xmlns="http://www.w3.org/2000/svg" xmlns:xlink="http://www.w3.org/1999/xlink">
    <!-- Generator: Sketch 52.3 (67297) - http://www.bohemiancoding.com/sketch -->
    <title>Group</title>
    <desc>Created with Sketch.</desc>
    <g id="Page-1" stroke="none" stroke-width="1" fill="none" fill-rule="evenodd">
        <g id="iPhone-8-Copy-4" transform="translate(-342.000000, -634.000000)" fill="#4B4F54">
            <g id="footer" transform="translate(-37.000000, 470.000000)">
                <g id="Group">
                    <g transform="translate(379.000000, 164.000000)">
                        <path d="M17.875,0 L8.125,0 C3.638375,0 0,3.638375 0,8.125 L0,17.875 C0,22.361625 3.638375,26 8.125,26 L17.875,26 C22.361625,26 26,22.361625 26,17.875 C26,16.4142216 26,15.3186378 26,14.5882486 C26,13.1519711 26,10.9975549 26,8.125 C26,3.638375 22.361625,0 17.875,0 Z M23.5625,17.875 C23.5625,21.01125 21.01125,23.5625 17.875,23.5625 L8.125,23.5625 C4.98875,23.5625 2.4375,21.01125 2.4375,17.875 L2.4375,8.125 C2.4375,4.98875 4.98875,2.4375 8.125,2.4375 L17.875,2.4375 C21.01125,2.4375 23.5625,4.98875 23.5625,8.125 L23.5625,17.875 Z" id="Shape" fill-rule="nonzero"></path>
                        <path d="M13.5,7 C9.910375,7 7,9.910375 7,13.5 C7,17.089625 9.910375,20 13.5,20 C17.089625,20 20,17.089625 20,13.5 C20,9.910375 17.089625,7 13.5,7 Z M13.5,17.5625 C11.26075,17.5625 9.4375,15.73925 9.4375,13.5 C9.4375,11.259125 11.26075,9.4375 13.5,9.4375 C15.73925,9.4375 17.5625,11.259125 17.5625,13.5 C17.5625,15.73925 15.73925,17.5625 13.5,17.5625 Z" id="Shape" fill-rule="nonzero"></path>
                        <circle id="Oval" cx="20" cy="6" r="1"></circle>
                    </g>
                </g>
            </g>
        </g>
    </g>
</svg>