<?xml version="1.0" encoding="UTF-8"?>
<svg width="257px" height="53px" viewBox="0 0 257 53" version="1.1" xmlns="http://www.w3.org/2000/svg" xmlns:xlink="http://www.w3.org/1999/xlink">
    <!-- Generator: Sketch 52.2 (67145) - http://www.bohemiancoding.com/sketch -->
    <title>logo</title>
    <desc>Created with Sketch.</desc>
    <g id="Page-1" stroke="none" stroke-width="1" fill="none" fill-rule="evenodd">
        <g id="Artboard" transform="translate(-85.000000, -151.000000)" fill="#000000">
            <g id="logo" transform="translate(85.000000, 151.000000)">
                <path d="M41.6008291,47.8400072 C29.7546888,47.8400072 20.1542035,38.2865766 20.1542035,26.5025341 C20.1542035,14.717858 29.7546888,5.17361344 41.6008291,5.17361344 C45.7761994,5.17361344 49.6744856,6.35797275 52.9676457,8.41088334 L41.6008291,26.5025341 L63,14.2135788 C60.6750417,10.5293629 57.3404782,7.35481114 53.3084273,4.94586421 C48.1775947,1.89073034 41.0402912,0 33.1481725,0 C21.8902786,0 12.0136646,4.06876046 6.50574288,10.1619233 C2.42782974,14.6662264 0,20.3352498 0,26.5022173 C0,32.6736194 2.42782974,38.3467607 6.50574288,42.8542314 C12.0279966,48.9549964 21.7574693,53 32.8296851,53 C43.9003084,53 53.6269147,48.9518288 59.1526718,42.8542314 C59.4552348,42.5184676 59.7482433,42.1795362 60.0253273,41.8279345 L59.1908902,38.7173679 C55.3085284,44.2289625 48.878267,47.8400072 41.6008291,47.8400072" id="Path"></path>
                <path d="M114,51.041774 L104.805117,18.2061482 C103.328066,12.9000109 98.2806622,9 92.271382,9 C90.7128167,9 89.2194633,9.26655537 87.8337096,9.74910173 L68.0386255,16.6395892 L88.3977928,16.6395892 L91.8768498,29.0771749 C88.5021319,26.296759 84.1068473,24.6050376 79.2942062,24.6050376 C69.7373965,24.6050376 62,30.7354989 62,38.2976808 C62,45.8604871 69.7373965,52 79.2942062,52 C86.1740657,52 92.2583396,48.7757413 96.0112867,43.8223061 L98.0295962,51.041774 L114,51.041774 Z M85.9523451,45.9416397 C81.5440181,45.9416397 77.9704038,42.5238631 77.9704038,38.2976808 C77.9704038,34.0777411 81.5440181,30.6568432 85.9523451,30.6568432 C90.3606722,30.6568432 93.937547,34.0777411 93.937547,38.2976808 C93.937547,42.5238631 90.3606722,45.9416397 85.9523451,45.9416397 Z" id="Shape" fill-rule="nonzero"></path>
                <path d="M150.145606,9 C148.958948,9 147.836434,9.26117109 146.835792,9.72891638 L134.334189,15.528958 C133.715202,11.8240321 130.48236,9 126.582425,9 C125.402181,9 124.276459,9.26117109 123.262989,9.72891638 L108,16.8089517 L118.731238,16.8089517 L118.731238,52 L134.440026,52 L134.440026,20.7239638 C134.440026,18.5659499 136.194355,16.809271 138.368826,16.809271 C140.530468,16.809271 142.297627,18.5659499 142.297627,20.7239638 L142.297627,52 L158,52 L158,16.8089517 C158,12.4932431 154.481719,9.00031928 150.145606,9.00031928" id="Path"></path>
                <path d="M249.149317,9 C247.959528,9 246.830672,9.26117109 245.814059,9.72891638 L233.326086,15.528958 C232.710346,11.8240321 229.477712,9 225.578026,9 C224.397858,9 223.272208,9.26117109 222.255596,9.72891638 L207,16.8089517 L217.727343,16.8089517 L217.727343,52 L233.431916,52 L233.431916,20.7239638 C233.431916,18.5659499 235.18934,16.809271 237.363671,16.809271 C239.531589,16.809271 241.285806,18.5659499 241.285806,20.7239638 L241.285806,52 L257,52 L257,16.8089517 C257,12.4932431 253.478738,9.00031928 249.149317,9.00031928" id="Path"></path>
                <path d="M210,31.0007929 C210,43.151881 199.92973,53 187.508108,53 C175.076757,53 165,43.151881 165,31.0007929 C165,18.8528765 175.076757,9 187.508108,9 C199.92973,9 210,18.8531937 210,31.0007929 Z M188.438919,15.6770564 C187.731892,13.0883173 185.010811,11.5516302 182.364324,12.2475005 C179.721081,12.9405163 178.141622,15.6031558 178.851892,18.1915777 L186.567568,46.323578 C187.281081,48.9148544 189.995676,50.4499557 192.642162,49.7648691 C195.288649,49.0639241 196.861622,46.4028704 196.151351,43.8147657 L188.438919,15.6770564 Z" id="Shape" fill-rule="nonzero"></path>
            </g>
        </g>
    </g>
</svg>