<?xml version="1.0" encoding="UTF-8"?>
<svg width="22px" height="18px" viewBox="0 0 22 18" version="1.1" xmlns="http://www.w3.org/2000/svg" xmlns:xlink="http://www.w3.org/1999/xlink">
    <!-- Generator: Sketch 52.3 (67297) - http://www.bohemiancoding.com/sketch -->
    <title>Path</title>
    <desc>Created with Sketch.</desc>
    <g id="Page-1" stroke="none" stroke-width="1" fill="none" fill-rule="evenodd">
        <g id="iPhone-8-Copy-4" transform="translate(-300.000000, -639.000000)" fill="#4B4F54">
            <g id="footer" transform="translate(-37.000000, 470.000000)">
                <g id="Path">
                    <path d="M358.650105,171.093958 C358.161299,171.307158 357.653881,171.475354 357.133214,171.597122 C357.706929,171.060878 358.138288,170.390151 358.381645,169.641499 C358.451107,169.427771 358.215098,169.242956 358.018889,169.357391 C357.294558,169.779991 356.514336,170.097021 355.699839,170.299775 C355.652583,170.31154 355.603826,170.317502 355.554908,170.317502 C355.406545,170.317502 355.262311,170.263318 355.148866,170.164975 C354.282286,169.413737 353.167737,169 352.010598,169 C351.509885,169 351.004344,169.076765 350.507976,169.228183 C348.970059,169.697371 347.78342,170.945177 347.411116,172.48469 C347.271442,173.062139 347.233627,173.640115 347.298637,174.202528 C347.306093,174.267158 347.275036,174.312267 347.255887,174.333423 C347.222256,174.370513 347.174572,174.391775 347.125063,174.391775 C347.119539,174.391775 347.113853,174.391511 347.108221,174.390983 C343.741776,174.083345 340.706064,172.488066 338.560265,169.899069 C338.450843,169.767013 338.24101,169.78321 338.153794,169.930355 C337.733592,170.639438 337.511529,171.450452 337.511529,172.275711 C337.511529,173.540453 338.02812,174.732335 338.925434,175.601226 C338.548089,175.513223 338.182866,175.374625 337.843604,175.189282 C337.679471,175.099592 337.477523,175.21487 337.475216,175.399528 C337.451723,177.278387 338.570081,178.950219 340.245419,179.703039 C340.21168,179.703831 340.177942,179.7042 340.14415,179.7042 C339.878586,179.7042 339.609698,179.678981 339.345047,179.629229 C339.160209,179.594514 339.004926,179.766983 339.062319,179.943252 C339.606104,181.613132 341.067854,182.844003 342.817106,183.123468 C341.365332,184.082049 339.674707,184.587693 337.915104,184.587693 L337.366545,184.587376 C337.197531,184.587376 337.054585,184.695744 337.011513,184.856765 C336.969086,185.015359 337.047237,185.182658 337.191363,185.265121 C339.174155,186.400128 341.435813,187 343.732818,187 C345.743449,187 347.624221,186.607525 349.322945,185.833548 C350.880225,185.12399 352.256369,184.109695 353.413132,182.818837 C354.490725,181.61635 355.333382,180.228204 355.91761,178.693018 C356.474536,177.229637 356.768903,175.668177 356.768903,174.177414 L356.768903,174.106401 C356.768849,173.867032 356.878915,173.641803 357.07094,173.488485 C357.799616,172.906552 358.434157,172.221527 358.956862,171.452457 C359.094873,171.249387 358.877209,170.994876 358.650105,171.093958 Z"></path>
                </g>
            </g>
        </g>
    </g>
</svg>